<?xml version="1.0" encoding="utf-8"?>
<!-- Generator: Adobe Illustrator 28.1.0, SVG Export Plug-In . SVG Version: 6.00 Build 0)  -->
<svg version="1.1" id="Layer_1" xmlns="http://www.w3.org/2000/svg" xmlns:xlink="http://www.w3.org/1999/xlink" x="0px" y="0px"
	 viewBox="0 0 559 168" style="enable-background:new 0 0 559 168;" xml:space="preserve">
<style type="text/css">
	.st0{fill:#1ED760;}
</style>
<path class="st0" d="M84,0.3C37.7,0.3,0.3,37.8,0.3,84c0,46.3,37.5,83.7,83.7,83.7c46.3,0,83.7-37.5,83.7-83.7
	C167.7,37.8,130.2,0.3,84,0.3C84,0.3,84,0.3,84,0.3z M122.4,121.1c-1.5,2.5-4.7,3.2-7.2,1.7c-19.7-12-44.4-14.7-73.6-8.1
	c-2.8,0.6-5.6-1.1-6.2-3.9c-0.6-2.8,1.1-5.6,3.9-6.2c31.9-7.3,59.3-4.2,81.3,9.3C123.1,115.4,123.9,118.6,122.4,121.1z M132.6,98.3
	c-1.9,3.1-5.9,4-9,2.2c-22.5-13.8-56.8-17.8-83.4-9.8c-3.5,1-7.1-0.9-8.1-4.3c-1-3.5,0.9-7.1,4.4-8.1c30.4-9.2,68.2-4.8,94.1,11.1
	C133.6,91.2,134.5,95.2,132.6,98.3L132.6,98.3z M133.5,74.5c-27-16-71.5-17.5-97.3-9.7c-4.1,1.3-8.5-1.1-9.8-5.2
	c-1.3-4.1,1.1-8.5,5.2-9.8c29.6-9,78.8-7.2,109.8,11.2c3.7,2.2,4.9,7,2.7,10.7C142.1,75.5,137.2,76.7,133.5,74.5L133.5,74.5z"/>
<g>
	<path class="st0" d="M252.9,120.9V71.6l-21.2,32.2h-0.4l-21-31.9v49h-16.4V45.4h17.9l19.8,31.9l19.8-31.9h17.9v75.5H252.9z"/>
</g>
<path class="st0" d="M368.7,63.3L368.7,63.3c-17.5,0-31.1,13.4-31.1,30.6c0,17,13.6,30.3,30.9,30.3c17.5,0,31.2-13.4,31.2-30.5
	C399.7,76.7,386.1,63.3,368.7,63.3z M368.7,111c-9.3,0-16.3-7.5-16.3-17.3c0-9.9,6.8-17.1,16.1-17.1c9.3,0,16.4,7.5,16.4,17.4
	C384.9,103.8,378.1,111,368.7,111z"/>
<path class="st0" d="M437,64.5h-14.2V49.9c0-0.5-0.4-0.9-0.9-0.9h-13c-0.5,0-1,0.4-1,0.9v14.6h-6.2c-0.5,0-0.9,0.4-0.9,0.9v11.1
	c0,0.5,0.4,0.9,0.9,0.9h6.2v28.8c0,11.6,5.8,17.5,17.2,17.5c4.6,0,8.5-1,12.1-3c0.3-0.2,0.5-0.5,0.5-0.8v-10.6
	c0-0.3-0.2-0.6-0.5-0.8c-0.3-0.2-0.6-0.2-0.9,0c-2.5,1.2-4.9,1.8-7.6,1.8c-4.1,0-6-1.9-6-6.1V77.5H437c0.5,0,0.9-0.4,0.9-0.9V65.5
	C438,64.9,437.5,64.5,437,64.5L437,64.5L437,64.5z"/>
<path class="st0" d="M486.6,64.6v-1.8c0-5.3,2-7.6,6.5-7.6c2.7,0,4.9,0.5,7.3,1.3c0.3,0.1,0.6,0,0.9-0.1c0.2-0.2,0.4-0.5,0.4-0.8
	V44.7c0-0.4-0.3-0.8-0.7-0.9c-2.6-0.8-5.8-1.5-10.8-1.5c-12,0-18.3,6.7-18.3,19.5v2.7h-6.2c-0.5,0-1,0.4-1,0.9v11.2
	c0,0.5,0.4,0.9,1,0.9h6.2v44.4c0,0.5,0.4,0.9,1,0.9h12.9c0.5,0,1-0.4,1-0.9V77.5h12.1l18.5,44.4c-2.1,4.7-4.2,5.6-7,5.6
	c-2.3,0-4.7-0.7-7.1-2c-0.2-0.1-0.5-0.1-0.8-0.1c-0.2,0.1-0.5,0.3-0.6,0.5l-4.4,9.6c-0.2,0.5,0,1,0.4,1.2c4.6,2.5,8.7,3.5,13.8,3.5
	c9.6,0,14.9-4.5,19.5-16.4l22.5-58c0.1-0.3,0.1-0.6-0.1-0.9c-0.2-0.3-0.5-0.4-0.8-0.4h-13.5c-0.4,0-0.8,0.3-0.9,0.6l-13.8,39.4
	l-15.1-39.5c-0.1-0.4-0.5-0.6-0.9-0.6L486.6,64.6L486.6,64.6L486.6,64.6z"/>
<path class="st0" d="M457.9,64.5h-13c-0.5,0-1,0.4-1,0.9v56.5c0,0.5,0.4,0.9,1,0.9h13c0.5,0,1-0.4,1-0.9V65.5
	C458.8,64.9,458.4,64.5,457.9,64.5C457.9,64.5,457.9,64.5,457.9,64.5z"/>
<path class="st0" d="M451.5,38.8c-5.1,0-9.3,4.2-9.3,9.3c0,5.1,4.2,9.3,9.3,9.3s9.3-4.2,9.3-9.3C460.7,42.9,456.6,38.8,451.5,38.8z"
	/>
<path class="st0" d="M303.5,63.3L303.5,63.3c-17.5,0-31.1,13.4-31.1,30.6c0,17,13.6,30.3,30.9,30.3c17.5,0,31.2-13.4,31.2-30.5
	C334.5,76.7,320.9,63.3,303.5,63.3z M318.5,93.7c0,10.1-6.2,17.2-15.2,17.2c-8.8,0-15.5-7.4-15.5-17.2c0-9.8,6.7-17.2,15.5-17.2
	C312.1,76.5,318.5,83.7,318.5,93.7L318.5,93.7z"/>
</svg>
